<svg xmlns="http://www.w3.org/2000/svg" viewBox="0 0 1600 500" preserveAspectRatio="xMidYMax slice">
  <g fill="none" stroke="#046c4e" stroke-opacity="0.10" stroke-width="1.3" stroke-linecap="round" stroke-linejoin="round">
    <path d="M0,430 L90,340 L170,385 L250,300 L330,360 L410,260 L500,345 L590,230 L680,330 L770,280 L860,370 L950,300 L1040,355 L1130,310 L1220,380 L1310,330 L1410,360 L1600,420"/>

    <rect x="640" y="170" width="80" height="250" rx="2"/>
    <path d="M628,170 L732,170 L720,150 L640,150 Z"/>
    <circle cx="680" cy="215" r="34"/>
    <path d="M680,181 L680,165 M680,249 L680,265 M646,215 L630,215 M714,215 L730,215 M656,191 L645,180 M704,191 L715,180 M656,239 L645,250 M704,239 L715,250"/>
    <path d="M660,300 L700,300 M655,330 L705,330 M658,360 L702,360 M662,390 L698,390"/>

    <path d="M1130,420 L1170,250 M1290,420 L1250,250"/>
    <path d="M1170,250 L1250,250"/>
    <path d="M1145,360 L1255,360 M1155,310 L1245,310 M1163,275 L1237,275"/>
    <path d="M1210,250 L1210,90"/>
    <circle cx="1210" cy="200" r="10"/>
    <path d="M1196,150 L1224,150 M1199,170 L1221,170"/>
    <path d="M1204,90 L1216,90 L1210,70 Z"/>
  </g>
</svg>
