<svg xmlns="http://www.w3.org/2000/svg" width="160" height="160" viewBox="0 0 160 160">
  <g fill="none" stroke="#046c4e" stroke-opacity="0.08" stroke-width="1.4" stroke-linecap="round">
    <path d="M20,80 C20,55 35,40 60,40 C70,40 70,52 60,52 C48,52 42,62 42,80 C42,98 48,108 60,108 C70,108 70,120 60,120 C35,120 20,105 20,80 Z"/>
    <path d="M140,80 C140,55 125,40 100,40 C90,40 90,52 100,52 C112,52 118,62 118,80 C118,98 112,108 100,108 C90,108 90,120 100,120 C125,120 140,105 140,80 Z"/>
    <path d="M80,20 L80,140 M60,80 L100,80"/>
    <circle cx="80" cy="80" r="4"/>
    <path d="M0,40 C8,40 8,30 0,30 M0,130 C8,130 8,120 0,120 M160,40 C152,40 152,30 160,30 M160,130 C152,130 152,120 160,120"/>
  </g>
</svg>
